<svg width="448" height="185" viewBox="0 0 448 185" fill="none" xmlns="http://www.w3.org/2000/svg">
<path fill-rule="evenodd" clip-rule="evenodd" d="M350.924 17.483C354.333 15.5259 358.195 14.4959 362.126 14.4959C366.057 14.4959 369.92 15.5259 373.329 17.483C373.344 17.4921 373.36 17.5012 373.376 17.5103L387.305 25.4693L387.376 25.5103C389.819 26.9209 391.967 28.7732 393.714 30.9631C394.409 31.7868 395.041 32.6829 395.6 33.6484C396.04 34.4101 396.421 35.1901 396.742 35.983C397.205 37.0428 397.586 38.1353 397.88 39.2505C401.162 38.8515 404.452 39.2181 407.469 40.1664L408.346 40.4424L430.169 48.4627L430.265 48.4994C434.469 50.0978 437.245 53.5199 440.063 59.9959C442.746 66.1603 444.299 71.9252 443.192 75.4453L443.06 75.8652L443.023 75.9647C447.785 81.7067 448.914 89.6541 446.922 95.9898L446.721 96.6268L439.034 116.055L438.934 116.289C437.33 120.037 434.379 123.579 430.529 125.987C430.7 126.46 430.86 126.955 431.003 127.472C432.019 131.133 431.993 135.071 430.805 138.849C430.012 141.369 428.845 143.186 428.536 143.666L428.521 143.69C428.098 144.348 427.665 144.937 427.628 144.989L427.25 145.511L416.307 158.609L416.264 158.659C414.859 160.316 412.14 163.265 407.986 165.302C402.99 167.751 397.313 168.216 391.896 166.513L391.881 166.508C391.749 166.467 390.884 166.201 389.939 165.815C389.156 165.495 388.15 165.032 387.04 164.363C384.005 162.671 381.079 160.776 378.357 158.619L366.811 169.489L366.639 169.644C363.868 172.124 356.825 177.414 346.931 175.286C341.871 174.198 338.155 171.455 335.784 169.037C333.852 167.083 331.036 164.319 327.966 161.333C323.776 164.784 318.09 166.788 311.311 165.532L287.394 161.75L286.897 161.643C278.614 159.862 271.509 152.92 270.345 143.758C266.227 146.541 261.852 148.788 257.326 150.482C240.042 156.953 219.649 155.219 204.409 144.331C203.259 146.897 201.873 148.6 201.47 149.095C201.449 149.121 201.43 149.144 201.414 149.163L201.357 149.234L190.849 161.995L190.769 162.09C188.042 165.312 180.23 173.055 168.275 170.44C165.481 169.828 162.93 168.56 161.958 168.072C160.319 167.249 158.414 166.164 156.406 164.815C155.033 163.892 153.508 162.777 151.93 161.458C146.18 161.867 140.563 161.429 135.246 160.266C133.821 159.955 132.412 159.588 131.022 159.168C130.519 161.293 129.708 163.342 128.606 165.248C126.631 168.664 123.793 171.5 120.376 173.473L120.305 173.514L106.376 181.473C106.359 181.483 106.341 181.493 106.324 181.503C104.608 182.488 102.777 183.238 100.88 183.74C99.0688 184.332 97.1349 184.652 95.1262 184.652C93.1174 184.652 91.1835 184.332 89.3726 183.74C87.4753 183.238 85.6439 182.488 83.9274 181.503C83.9103 181.493 83.8932 181.483 83.8762 181.473L69.9476 173.514L69.8762 173.473C66.704 171.642 64.0308 169.066 62.0841 165.973L39.307 169.328L39.0238 169.361C27.725 170.671 18.0037 163.059 15.8828 152.519L15.7883 152.05L4.5631 58.8563C2.62958 47.3462 7.87137 36.1122 18.3697 33.9995L19.0507 33.8624L38.1331 30.9893C43.069 28.528 48.3382 26.6222 53.8723 25.5085C80.2122 20.208 109.81 32.3679 121.262 58.8563C127.764 55.6908 135.181 53.8277 143.301 53.8732L150.34 31.978C154.141 20.1566 166.826 13.6437 178.647 17.4442L209.111 27.2383C217.589 29.9637 223.336 37.2581 224.508 45.5265C232.155 42.958 239.587 41.9692 245.935 42.2031C249.335 42.3284 253.108 42.829 256.705 44.0731C258.497 44.6932 260.81 45.6905 263.114 47.3464C265.321 48.9328 267.717 51.9366 269.563 56.8686C269.591 56.9424 269.264 58.3643 269.563 59.4959C269.782 60.3243 269.639 61.7762 269.563 64.4959L271.68 77.0497C274.178 78.0081 276.377 79.3561 278.162 80.8133L278.457 81.0542L278.742 81.307C278.954 81.4943 279.198 81.7063 279.469 81.9393L286.202 40.3221L286.353 39.6229C288.824 28.1262 299.686 22.1845 309.242 23.2603L309.699 23.3118L334.213 27.3133C335.054 26.6518 335.943 26.0489 336.876 25.5103L336.948 25.4693L350.876 17.5103C350.892 17.5012 350.908 17.4921 350.924 17.483Z" fill="#A67B5B"/>
<path fill-rule="evenodd" clip-rule="evenodd" d="M349.361 2.98707C352.769 1.03004 356.632 0 360.563 0C364.494 0 368.357 1.03004 371.766 2.98707C371.781 2.99617 371.797 3.00529 371.813 3.01443L385.742 10.9734L385.813 11.0144C388.256 12.425 390.404 14.2773 392.151 16.4672C392.846 17.2909 393.478 18.187 394.037 19.1525C394.477 19.9142 394.858 20.6942 395.179 21.4871C395.642 22.5469 396.023 23.6394 396.317 24.7546C399.599 24.3556 402.889 24.7222 405.905 25.6705L406.783 25.9465L428.605 33.9668L428.702 34.0035C432.906 35.6019 438.144 39.0324 440.963 45.5085C443.645 51.6729 442.736 57.4293 441.629 60.9494L441.497 61.3693L441.46 61.4688C446.222 67.2108 447.351 75.1582 445.359 81.4939L445.158 82.131L437.471 101.559L437.371 101.793C435.767 105.541 432.816 109.083 428.966 111.492C429.137 111.964 429.296 112.459 429.44 112.976C430.456 116.637 430.43 120.575 429.242 124.353C428.449 126.874 427.282 128.69 426.973 129.171L426.958 129.194C426.535 129.852 426.102 130.441 426.065 130.493L425.687 131.015L414.744 144.113L414.701 144.163C413.296 145.82 410.577 148.77 406.423 150.806C401.427 153.255 395.75 153.72 390.333 152.017L390.318 152.012C390.186 151.971 389.321 151.705 388.376 151.319C387.593 150.999 386.587 150.536 385.477 149.867C382.442 148.175 379.516 146.28 376.794 144.123L365.248 154.993L365.076 155.148C362.305 157.628 355.262 162.918 345.368 160.79C340.308 159.703 336.592 156.959 334.221 154.541C332.289 152.587 329.473 149.823 326.403 146.837C322.213 150.288 316.527 152.292 309.748 151.036L285.831 147.254L285.334 147.147C277.051 145.366 269.946 138.424 268.782 129.262C264.664 132.045 260.289 134.292 255.763 135.987C238.479 142.457 218.086 140.723 202.845 129.835C201.696 132.401 200.31 134.104 199.907 134.599C199.885 134.625 199.867 134.648 199.851 134.667L199.794 134.739L189.286 147.499L189.206 147.594C186.479 150.816 178.667 158.559 166.712 155.944C163.918 155.333 161.367 154.064 160.395 153.576C158.756 152.753 156.851 151.668 154.843 150.319C153.47 149.396 151.945 148.281 150.367 146.962C144.617 147.371 138.999 146.933 133.683 145.77C132.258 145.459 130.849 145.092 129.459 144.672C128.956 146.797 128.145 148.846 127.043 150.752C125.068 154.168 122.23 157.005 118.813 158.977L118.742 159.018L104.813 166.977C104.796 166.987 104.778 166.997 104.761 167.007C103.045 167.992 101.214 168.742 99.3166 169.244C97.5057 169.836 95.5718 170.156 93.5631 170.156C91.5544 170.156 89.6205 169.836 87.8095 169.244C85.9123 168.742 84.0808 167.992 82.3643 167.007C82.3472 166.997 82.3301 166.987 82.3131 166.977L68.3845 159.018L68.3131 158.977C65.141 157.146 62.4677 154.57 60.5211 151.477L37.7439 154.832L37.4608 154.865C26.1619 156.176 16.4406 148.563 14.3197 138.024L14.2252 137.554L0.290935 43.316C-1.64258 31.8059 6.30828 21.6163 16.8066 19.5036L17.4876 19.3666L36.5701 16.4934C41.5059 14.0321 46.7751 12.1263 52.3092 11.0127C78.6491 5.71207 108.247 17.872 119.699 44.3604C126.201 41.1949 133.618 39.3318 141.738 39.3773L148.777 17.4821C152.578 5.66071 165.263 -0.852188 177.084 2.94832L207.548 12.7424C216.026 15.4678 221.773 22.7622 222.945 31.0306C230.592 28.4621 238.024 27.4733 244.372 27.7072C247.772 27.8325 251.545 28.3331 255.142 29.5772C256.934 30.1973 259.247 31.1946 261.551 32.8505C263.758 34.4369 267.07 37.4407 268.917 42.3727L268.918 42.3771C268.947 42.4509 269.31 43.3957 269.609 44.5273C269.828 45.3557 270.345 47.438 270.269 50.1577L270.116 62.5538C272.614 63.5122 274.814 64.8602 276.599 66.3174L276.894 66.5583L277.179 66.8111C277.391 66.9984 277.634 67.2104 277.906 67.4434L284.639 25.8262L284.79 25.127C287.261 13.6303 298.123 7.68862 307.679 8.76445L308.136 8.8159L332.65 12.8174C333.491 12.1559 334.38 11.553 335.313 11.0144L335.385 10.9734L349.313 3.01443C349.329 3.00529 349.345 2.99617 349.361 2.98707Z" fill="#CCB09B"/>
<path d="M411.077 119.648L400.589 132.201C398.989 134.088 397.599 134.908 395.882 134.369C395.539 134.261 395.195 134.153 394.888 133.93C377.609 124.472 374.366 112.383 382.899 83.2407L374.458 80.0834C373.234 79.573 372.564 78.1044 372.96 76.8451L380.308 58.2741C380.819 57.0509 382.173 56.3445 383.546 56.7765L390.729 59.5378C392.326 55.2598 394.03 50.6383 395.921 45.8238C396.468 44.4861 397.38 42.383 400.357 43.3188L400.815 43.4628L422.127 51.2955C424.037 52.0219 424.593 53.4546 423.981 55.4006C422.24 60.1366 420.313 65.0656 418.458 69.7655L426.213 72.7069C427.472 73.1028 428.142 74.5715 427.71 75.9452L420.362 94.5162C419.888 95.6249 418.648 96.3673 417.389 95.9714L417.16 95.8994L409.712 93.1805C406.437 103.598 405.327 111.928 409.68 115.687C410.76 116.655 411.989 117.545 411.594 118.804C411.522 119.033 411.299 119.341 411.077 119.648Z" fill="#444444"/>
<path d="M365.047 129.774L352.735 141.365C351.519 142.454 350.43 142.956 349.256 142.704C348.67 142.578 348.016 142.192 347.413 141.571C341.869 135.96 329.146 123.774 323.97 118.733C323.367 118.113 322.865 117.023 323.092 115.967C323.218 115.38 323.578 114.844 324.316 114.266L335.243 105.692C328.528 107.807 322.501 109.58 319.902 110.249L319.123 110.449L315.865 130.738C315.563 132.146 314.372 133.117 312.964 132.815L289.223 129.061C287.932 128.783 286.961 127.592 287.146 126.159L302.826 29.2501L302.876 29.0155C303.129 27.8423 304.411 27.0134 305.61 27.1483L329.326 31.0197L329.561 31.0701C330.851 31.3476 331.563 32.6053 331.402 33.921L323.264 84.3366C328.881 81.6165 352.289 70.9379 357.451 72.0477C358.389 72.2495 359.344 72.9458 359.955 74.6727L366.287 92.6043C366.605 93.4091 366.688 94.1635 366.537 94.8674C366.285 96.0406 365.354 96.9451 363.795 97.3464C360.559 98.1236 353.09 100.323 345.219 102.681C352.876 107.028 367.306 123.263 366.372 127.604C366.221 128.308 365.835 128.962 365.047 129.774Z" fill="#444444"/>
<path d="M251.773 49.6876L251.582 65.2633C251.637 66.7802 250.822 68.3668 249.473 68.8717C249.024 69.04 248.377 69.0256 247.802 68.8567C245.148 67.9283 240.752 68.1646 236.818 69.6371C233.896 70.731 224.371 75.0656 228.957 87.3154C231.776 94.845 239.022 97.7704 246.327 95.0357C251.159 93.2266 255.979 88.9877 259.522 82.0234C259.944 81.0966 260.745 80.1561 261.756 79.7774C262.543 79.4829 263.61 79.5959 264.902 80.65C268.355 83.7137 270.461 85.2317 273.648 88.2672C274.237 88.8153 274.757 89.5178 275.051 90.3045C275.556 91.6531 275.457 93.0996 274.613 94.9531C268.75 107.014 259.391 114.874 249.277 118.661C230.621 125.645 209.221 118.793 201.816 99.0137C192.392 73.84 208.68 56.0822 227.223 49.1402C239.697 44.4702 250.539 46.0493 251.591 48.8588C251.675 49.0836 251.801 49.4208 251.773 49.6876Z" fill="#444444"/>
<path d="M185.454 123.049L175.083 135.644C173.592 137.406 172.189 138.204 170.665 137.871C169.493 137.615 161.697 133.944 157.041 127.152C150.253 128.984 143.615 129.006 137.636 127.698C118.059 123.415 104.461 104.717 108.59 85.8437C111.667 71.7764 126.068 53.6757 149.279 58.7532C155.14 60.0354 160.602 62.5814 164.738 65.5744C165.621 64.9077 166.753 64.7868 168.16 65.0945L168.746 65.2227L188.642 71.4175C191.638 72.3187 192.126 74.0222 191.818 75.4289L191.69 76.0151C187.715 86.3238 183.843 96.1636 182.15 103.901C180.612 110.934 180.798 116.257 184.114 119.071C185.158 119.913 186.293 120.899 186.037 122.071C185.986 122.305 185.792 122.632 185.454 123.049ZM152.979 106.978C153.294 103.853 153.777 100.519 154.572 96.8852C155.239 93.8373 156.049 90.6978 157.052 87.2323C156.159 84.58 153.352 82.2464 149.953 81.5027C142.567 79.8872 136.9 86.1405 135.592 92.1191C134.156 98.6839 137.497 105.311 145.117 106.978C147.344 107.465 150.026 107.56 152.979 106.978Z" fill="#444444"/>
<path d="M60.5302 132.764L60.2949 132.811L35.3298 136.488C33.8944 136.655 32.7402 135.786 32.4561 134.374L18.5533 40.3487C18.3166 39.1723 19.1623 37.9004 20.4564 37.64L20.6917 37.5927L42.4331 34.3191C46.831 31.8428 51.371 30.0724 55.959 29.1491C77.7227 24.7694 100.612 36.9327 105.181 59.6376C109.561 81.4013 97.792 99.56 73.3226 104.484C68.3816 105.478 63.4163 105.743 58.6855 105.349L62.4096 129.937C62.5524 131.255 61.7066 132.527 60.5302 132.764ZM51.4733 56.7362L55.1508 81.7014C57.9756 82.357 61.4353 82.5176 64.6116 81.8784C77.5522 79.2742 75.0191 66.6866 74.8534 65.8631C73.1962 57.6282 65.4483 53.1895 56.7428 54.9414C55.0958 55.2728 53.2609 55.8869 51.4733 56.7362Z" fill="#444444"/>
<path fill-rule="evenodd" clip-rule="evenodd" d="M357.567 17.3013C358.479 16.7763 359.512 16.5 360.563 16.5C361.615 16.5 362.648 16.7763 363.559 17.3013L363.563 17.3038L377.563 25.3038C378.303 25.7311 378.941 26.3102 379.437 27.0007C379.558 27.1214 379.665 27.2597 379.754 27.4145C379.831 27.5478 379.891 27.6863 379.935 27.8275C380.346 28.6544 380.562 29.5668 380.563 30.4938V46.498C380.562 47.5501 380.284 48.5835 379.758 49.4945C379.231 50.4054 378.474 51.1619 377.563 51.688L377.555 51.6924L363.563 59.688L363.559 59.6901C362.925 60.0558 362.231 60.3009 361.514 60.416C361.231 60.569 360.907 60.6559 360.563 60.6559C360.219 60.6559 359.895 60.569 359.613 60.416C358.895 60.3009 358.201 60.0558 357.567 59.6901L357.563 59.688L343.571 51.6924L343.563 51.688C342.652 51.1619 341.895 50.4054 341.368 49.4945C340.842 48.5835 340.564 47.5501 340.563 46.498V30.4938C340.564 29.5668 340.78 28.6544 341.191 27.8275C341.235 27.6863 341.295 27.5478 341.372 27.4145C341.461 27.2597 341.569 27.1214 341.689 27.0007C342.185 26.3102 342.823 25.7311 343.563 25.3038L343.571 25.2994L357.563 17.3038L357.567 17.3013ZM344.563 31.571L358.563 39.6695V55.6524L345.563 48.2238L345.56 48.222C345.258 48.0467 345.006 47.7953 344.832 47.4927C344.656 47.189 344.563 46.8446 344.563 46.4938V31.571ZM362.563 55.6524V39.6695L376.563 31.571V46.4938C376.563 46.8446 376.47 47.189 376.295 47.4927C376.12 47.7953 375.869 48.0467 375.566 48.222L375.563 48.2238L362.563 55.6524ZM374.485 28.152L361.571 20.7724L361.563 20.7679C361.259 20.5924 360.914 20.5 360.563 20.5C360.212 20.5 359.867 20.5924 359.563 20.7679L359.555 20.7724L346.641 28.152L360.563 36.2054L374.485 28.152ZM168.77 22.9724L181.892 40.2696L202.636 33.8603C202.521 33.1364 202.013 32.4961 201.274 32.2586L170.81 22.4645C170.071 22.227 169.285 22.4509 168.77 22.9724ZM201.39 38.4318L181.735 44.5046C180.932 44.7528 180.059 44.4722 179.551 43.8025L167.118 27.4134L160.948 46.6047C160.613 47.6475 161.197 48.7855 162.24 49.1208L192.704 58.9149C193.747 59.2502 194.885 58.6659 195.22 57.623L201.39 38.4318ZM164.485 22.5322C165.497 19.3862 168.888 17.6451 172.034 18.6565L202.498 28.4506C205.644 29.462 207.385 32.8531 206.374 35.9991L199.028 58.8473C198.017 61.9933 194.626 63.7344 191.48 62.723L161.016 52.9289C157.87 51.9174 156.128 48.5264 157.14 45.3804L164.485 22.5322ZM90.5684 110.301C91.4792 109.776 92.5119 109.5 93.5631 109.5C94.6143 109.5 95.647 109.776 96.5579 110.301L96.5631 110.304L110.563 118.304C111.303 118.731 111.941 119.31 112.437 120.001C112.558 120.121 112.665 120.26 112.754 120.414C112.831 120.548 112.891 120.686 112.935 120.828C113.346 121.654 113.562 122.567 113.563 123.494V139.498C113.562 140.55 113.284 141.584 112.758 142.494C112.231 143.405 111.474 144.162 110.563 144.688L110.555 144.692L96.5631 152.688L96.561 152.689C95.9261 153.055 95.232 153.301 94.5136 153.416C94.2309 153.569 93.9071 153.656 93.5631 153.656C93.219 153.656 92.8953 153.569 92.6126 153.416C91.8942 153.301 91.2001 153.055 90.5653 152.689L90.5631 152.688L76.5708 144.692L76.5631 144.688C75.6519 144.162 74.895 143.405 74.3685 142.494C73.8419 141.584 73.5642 140.55 73.5631 139.498V123.494C73.564 122.567 73.7797 121.654 74.1911 120.828C74.2347 120.686 74.2947 120.548 74.3719 120.414C74.4614 120.26 74.5685 120.121 74.6893 120.001C75.185 119.31 75.8231 118.731 76.5631 118.304L76.5708 118.299L83.0683 114.587C83.3634 114.254 83.7555 114.037 84.1757 113.954L90.5631 110.304C90.5649 110.303 90.5666 110.302 90.5684 110.301ZM84.6631 118.282L79.6411 121.152L93.5631 129.205L98.5762 126.305L84.6631 118.282ZM102.573 123.993L88.6849 115.984L92.5554 113.772L92.5631 113.768C92.8671 113.592 93.212 113.5 93.5631 113.5C93.9142 113.5 94.2591 113.592 94.5631 113.768L94.5708 113.772L107.485 121.152L102.573 123.993ZM109.563 124.571L95.5631 132.669V148.652L108.563 141.224L108.567 141.222C108.869 141.046 109.12 140.795 109.295 140.493C109.47 140.189 109.563 139.845 109.563 139.494V124.571ZM91.5631 148.652V132.669L77.5631 124.571V139.495C77.5636 139.845 77.6562 140.189 77.8316 140.493C78.0063 140.795 78.2572 141.046 78.5593 141.222L78.5631 141.224L91.5631 148.652Z" fill="#444444"/>
</svg>
